<?xml version="1.0" encoding="UTF-8" standalone="no"?>
<svg
   height="48px"
   viewBox="0 -960 960 960"
   width="48px"
   fill="#e3e3e3"
   version="1.1"
   id="svg1"
   sodipodi:docname="go_input_buffer.svg"
   inkscape:version="1.4.3 (0d15f75042, 2025-12-25)"
   xmlns:inkscape="http://www.inkscape.org/namespaces/inkscape"
   xmlns:sodipodi="http://sodipodi.sourceforge.net/DTD/sodipodi-0.dtd"
   xmlns="http://www.w3.org/2000/svg"
   xmlns:svg="http://www.w3.org/2000/svg">
  <defs
     id="defs1">
    <inkscape:path-effect
       effect="offset"
       id="path-effect2"
       is_visible="true"
       lpeversion="1.3"
       linejoin_type="miter"
       unit="mm"
       offset="0.2"
       miter_limit="4"
       attempt_force_join="false"
       update_on_knot_move="true" />
    <inkscape:path-effect
       effect="fillet_chamfer"
       id="path-effect1"
       is_visible="true"
       lpeversion="1"
       nodesatellites_param="F,1,0,1,0,0.11,0,1 @ F,1,0,1,0,0.11,0,1 @ F,1,0,1,0,0.11,0,1 @ F,1,0,1,0,0.11,0,1 @ F,1,0,1,0,0.11,0,1 @ F,1,0,1,0,0.11,0,1 | F,1,0,1,0,0.11,0,1 @ F,1,0,1,0,0.11,0,1 @ F,1,0,1,0,0.11,0,1 @ F,1,0,1,0,0.11,0,1 @ F,1,0,1,0,0.11,0,1 @ F,1,0,1,0,0.11,0,1 @ F,1,0,1,0,0.11,0,1 @ F,1,0,1,0,0.11,0,1 | "
       radius="10"
       unit="px"
       method="auto"
       mode="F"
       chamfer_steps="1"
       flexible="true"
       use_knot_distance="true"
       apply_no_radius="true"
       apply_with_radius="true"
       only_selected="false"
       hide_knots="false" />
  </defs>
  <sodipodi:namedview
     id="namedview1"
     pagecolor="#505050"
     bordercolor="#ffffff"
     borderopacity="1"
     inkscape:showpageshadow="0"
     inkscape:pageopacity="0"
     inkscape:pagecheckerboard="1"
     inkscape:deskcolor="#505050"
     inkscape:zoom="4.3367339"
     inkscape:cx="18.331768"
     inkscape:cy="29.630594"
     inkscape:window-width="1600"
     inkscape:window-height="996"
     inkscape:window-x="0"
     inkscape:window-y="0"
     inkscape:window-maximized="1"
     inkscape:current-layer="svg1" />
  <path
     d="M 416,0 Q 384,0 356,-13.714286 328,-27.428571 308.57143,-52.571428 L 59.42857,-369.14286 81.14285,-392 Q 104,-416 136,-420.57143 168,-425.14286 195.42857,-408 L 280,-356.57143 v -374.85714 q 0,-19.42857 13.14286,-32.57143 13.14285,-13.14286 32.57143,-13.14286 19.42856,0 33.14285,13.14286 13.71428,13.14286 13.71428,32.57143 V -192 l -110.85714,-68.57143 118.85715,152 q 6.85714,8 15.99999,12.57143 9.14286,4.571428 19.42858,4.571428 h 252.57146 q 37.71428,0 64.5714,-26.857138 26.85711,-26.85715 26.85711,-64.57143 v -182.85715 q 0,-19.42856 -13.14283,-32.57143 -13.14283,-13.14285 -32.57143,-13.14285 H 464 v -91.42858 h 250.28571 q 57.14289,0 97.14283,40.00001 40.00003,40 40.00003,97.14285 v 182.85715 q 0,75.42857 -53.71431,129.142854 Q 744.00003,0 668.57146,0 Z M 128,-617.14286 q -14.85714,-25.14285 -22.85715,-54.28571 -7.99999,-29.14286 -7.99999,-60 0,-94.85714 66.85714,-161.71429 Q 230.85714,-960 325.71429,-960 q 30.85714,0 59.42857,7.42857 28.57142,7.42857 53.71431,22.28572 53.71423,29.71428 84.57137,83.42857 30.85714,53.71429 30.85714,115.42857 0,30.85714 -7.99997,60 -7.99997,29.14286 -22.85717,54.28571 l -78.85714,-45.71428 q 9.14288,-16 13.71428,-32.57143 4.57149,-16.57143 4.57149,-36 Q 462.85717,-768 444.00003,-800 425.14286,-832 393.14285,-850.28571 378.28571,-859.42857 361.14286,-864 344,-868.57143 325.71429,-868.57143 q -57.14286,0 -97.14287,40 -39.99999,40 -39.99999,97.14286 0,19.42857 4.57143,36 4.57142,16.57143 13.71428,32.57143 z m 382.85717,320 z m 247.99997,-553.14285 45.71426,-80 q 53.71431,29.71428 84.57146,83.42857 Q 920,-793.14285 920,-731.42857 q 0,30.85714 -7.99997,60 -8.00006,29.14286 -22.85717,54.28571 l -78.85715,-45.71428 q 9.14289,-16 13.71429,-32.57143 4.5714,-16.57143 4.5714,-36 0,-36.57143 -18.85714,-68.57143 -18.85715,-32 -50.85712,-50.28571 z m -182.85711,0 45.71425,-80 q 53.71432,29.71428 84.57146,83.42857 30.85714,53.71429 30.85714,115.42857 0,30.85714 -8.00005,60 -7.99997,29.14286 -22.85709,54.28571 l -78.85714,-45.71428 q 9.1428,-16 13.71428,-32.57143 4.5714,-16.57143 4.5714,-36 Q 645.71428,-768 626.85714,-800 608,-832 576.00003,-850.28571 Z"
     id="path1-5"
     style="stroke-width:1.14285;fill:#87de87" />
</svg>
